<svg width="23" height="23" viewBox="0 0 23 23" fill="none" xmlns="http://www.w3.org/2000/svg">
<path d="M2.875 9.9125H2.725V10.0625V19.4062C2.725 20.0179 2.96798 20.6045 3.40048 21.037C3.83299 21.4695 4.41959 21.7125 5.03125 21.7125H17.9688C18.5804 21.7125 19.167 21.4695 19.5995 21.037C20.032 20.6045 20.275 20.0179 20.275 19.4062V10.0625V9.9125H20.125H18.6875H18.5375V10.0625V19.4062C18.5375 19.5571 18.4776 19.7018 18.3709 19.8084C18.2643 19.9151 18.1196 19.975 17.9688 19.975H5.03125C4.88041 19.975 4.73574 19.9151 4.62908 19.8084C4.52242 19.7018 4.4625 19.5571 4.4625 19.4062V10.0625V9.9125H4.3125H2.875ZM18.5814 8.73107L18.8375 8.98713V8.625V3.59375C18.8375 3.36334 18.746 3.14237 18.583 2.97945C18.4201 2.81653 18.1992 2.725 17.9688 2.725H16.5312C16.3008 2.725 16.0799 2.81653 15.917 2.97945C15.754 3.14237 15.6625 3.36334 15.6625 3.59375V5.75V5.81213L15.7064 5.85607L18.5814 8.73107Z" fill="#1E1E1E" stroke="black" stroke-width="0.3"/>
<path d="M10.3776 2.05015L10.3776 2.05016L0.822498 11.6038L0.82249 11.6038C0.659398 11.7669 0.567773 11.9881 0.567773 12.2187C0.567773 12.4494 0.659398 12.6706 0.82249 12.8337C0.985583 12.9968 1.20678 13.0884 1.43743 13.0884C1.66808 13.0884 1.88928 12.9968 2.05237 12.8337L2.05238 12.8337L11.4999 3.38469L20.9475 12.8337L21.0536 12.7276L20.9475 12.8337C21.1106 12.9968 21.3318 13.0884 21.5624 13.0884C21.7931 13.0884 22.0143 12.9968 22.1774 12.8337C22.3405 12.6706 22.4321 12.4494 22.4321 12.2187C22.4321 11.9881 22.3405 11.7669 22.1774 11.6038L22.0713 11.7099L22.1774 11.6038L12.6223 2.05016L12.6223 2.05015C12.3246 1.75254 11.9209 1.58535 11.4999 1.58535C11.079 1.58535 10.6753 1.75254 10.3776 2.05015Z" fill="#1E1E1E" stroke="black" stroke-width="0.3"/>
</svg>
