<svg width="40" height="48" viewBox="0 0 40 48" fill="none" xmlns="http://www.w3.org/2000/svg">
<path fill-rule="evenodd" clip-rule="evenodd" d="M5.85823 5.82338C9.60891 2.09473 14.6959 0 20.0002 0C25.3045 0 30.3915 2.09473 34.1422 5.82338C37.8929 9.55202 40 14.6092 40 19.8823C40 25.1554 37.8929 30.2125 34.1422 33.9411L20.0002 48L5.85823 33.9411C4.00095 32.095 2.52767 29.9032 1.52251 27.4909C0.517351 25.0787 0 22.4933 0 19.8823C0 17.2712 0.517351 14.6858 1.52251 12.2736C2.52767 9.86133 4.00095 7.66955 5.85823 5.82338ZM20.0002 25.5626C21.5156 25.5626 22.969 24.9641 24.0406 23.8989C25.1121 22.8336 25.7141 21.3888 25.7141 19.8823C25.7141 18.3757 25.1121 16.9309 24.0406 15.8656C22.969 14.8004 21.5156 14.2019 20.0002 14.2019C18.4848 14.2019 17.0314 14.8004 15.9599 15.8656C14.8883 16.9309 14.2863 18.3757 14.2863 19.8823C14.2863 21.3888 14.8883 22.8336 15.9599 23.8989C17.0314 24.9641 18.4848 25.5626 20.0002 25.5626Z" fill="#0FB935"/>
</svg>
