<svg width="177" height="149" viewBox="0 0 177 149" fill="none" xmlns="http://www.w3.org/2000/svg">
<path d="M94.6925 37.2416L99.8988 37.2411L91.1846 30.9066L94.3 36.5072L94.6925 37.2416ZM94.6925 37.2416C94.5661 36.997 94.4367 36.7515 94.3003 36.5077L94.6925 37.2416ZM72.1258 1.55096L67.5119 9.84391L55.4178 1.05169L55.4177 1.05167C54.8708 0.654149 54.1297 0.654149 53.5827 1.05167L53.5827 1.05169L3.39158 37.54L3.39155 37.5401C2.6952 38.0465 2.54198 39.0208 3.04897 39.7161L3.04899 39.7161C3.34244 40.1184 3.81048 40.3563 4.30856 40.3566H4.30869H17.4503V93.6926C17.4503 94.5531 18.1487 95.25 19.0097 95.25H89.9899C90.8508 95.25 91.5492 94.5531 91.5492 93.6926V68.5228C97.9506 60.5925 99.6695 49.8778 96.0844 40.3563H104.691C105.552 40.3561 106.25 39.6589 106.25 38.7987V38.7985C106.25 38.3006 106.011 37.8328 105.608 37.54L87.5856 24.4377L74.8523 1.5517C74.8348 1.52005 74.8089 1.48231 74.7967 1.46461C74.7948 1.46191 74.7933 1.45967 74.7922 1.458C74.7916 1.45722 74.7912 1.45657 74.7909 1.45604L74.7884 1.45203C74.786 1.44816 74.7823 1.44227 74.7777 1.43555C74.2992 0.725008 73.3351 0.53641 72.6234 1.01332V1.01332C72.4564 1.1252 72.3126 1.26858 72.2004 1.43526C72.1958 1.44191 72.1921 1.44778 72.1903 1.45064L72.1879 1.45428L72.1876 1.45478L72.1868 1.456C72.1854 1.45813 72.1831 1.46156 72.1801 1.46598C72.1675 1.48434 72.1432 1.51982 72.1261 1.55041L72.1258 1.55096ZM52.4192 54.0353L52.4191 54.034C51.6303 48.5143 52.6788 42.8885 55.4029 38.0212L55.4033 38.0207L71.9299 8.31561V31.9058L67.7279 27.7098L67.7254 27.7074C67.1082 27.1077 66.1214 27.1212 65.5208 27.7373L65.6998 27.9118L65.5208 27.7373C64.9314 28.3419 64.9315 29.3052 65.5207 29.91L65.5232 29.9124L71.9297 36.3099V47.2485L63.1524 38.4838C62.5435 37.8758 61.5564 37.8756 60.9473 38.4838C60.3382 39.092 60.3379 40.0783 60.9473 40.6866C60.9473 40.6866 60.9473 40.6866 60.9473 40.6866L71.9297 51.653V63.1625L57.4328 48.6867L57.4304 48.6843C56.8132 48.0846 55.8263 48.0978 55.2257 48.7142C54.6364 49.3188 54.6364 50.2822 55.2257 50.8868L55.2281 50.8892L71.9299 67.5672V74.244C67.3741 73.8904 63.0881 71.9439 59.8268 68.7456L59.694 68.6136C55.7352 64.6811 53.1795 59.5592 52.4192 54.0353ZM94.5592 54.034L94.5591 54.0353C93.9024 58.8062 91.902 63.2928 88.7908 66.9726L88.788 66.976L88.7859 66.9786C88.7855 66.9791 88.7851 66.9796 88.7847 66.9801C88.3094 67.5426 87.8091 68.0874 87.2834 68.615C84.0062 71.8908 79.6656 73.8856 75.0482 74.244V67.5672L91.7502 50.8892L91.7526 50.8868C92.3533 50.2703 92.3399 49.284 91.7225 48.6843C91.1172 48.096 90.1529 48.0963 89.5477 48.6843L89.5453 48.6867L75.0482 63.1625V51.653L86.0292 40.688C86.0295 40.6876 86.0299 40.6873 86.0303 40.6869C86.6431 40.0836 86.6512 39.0981 86.0473 38.4853C85.4434 37.8724 84.4563 37.864 83.8424 38.4671L83.841 38.4686L83.8343 38.4751C83.8317 38.4777 83.828 38.4814 83.824 38.4856C83.8233 38.4862 83.8226 38.4869 83.822 38.4876L75.0482 47.2485V36.3103L81.4549 29.9128L81.4573 29.9104C82.0581 29.2939 82.0446 28.3075 81.4271 27.7078C80.8219 27.1198 79.8577 27.1198 79.2524 27.7079L79.25 27.7103L75.0482 31.9059V8.31557L91.5755 38.0207L91.5758 38.0212C94.2999 42.8885 95.348 48.5143 94.5592 54.034ZM19.0097 37.2417H9.10066L54.4998 4.23736L65.9854 12.5871L52.677 36.5076C46.4305 47.7345 48.3944 61.736 57.4891 70.8171C61.3503 74.678 66.4828 77.0048 71.9295 77.3689V92.1351H20.569V38.7991C20.569 37.9388 19.8706 37.2417 19.0097 37.2417ZM75.0482 92.1351V77.3699C80.0037 77.0377 84.7075 75.08 88.4306 71.8064V92.1351H75.0482Z" fill="white" stroke="white" stroke-width="0.5"/>
<path d="M13.92 111C17.7333 111 20.8933 112.36 23.4 115.08C25.9333 117.773 27.2 121.08 27.2 125C27.2 128.92 25.9333 132.24 23.4 134.96C20.8933 137.653 17.7333 139 13.92 139H3V111H13.92ZM13.92 135.48C16.7733 135.48 19.1067 134.48 20.92 132.48C22.7333 130.48 23.64 127.987 23.64 125C23.64 122.013 22.7333 119.52 20.92 117.52C19.1067 115.52 16.7733 114.52 13.92 114.52H6.72V135.48H13.92ZM49.7353 139L47.4553 132.72H34.8553L32.5753 139H28.6153L39.0553 111H43.2553L53.6953 139H49.7353ZM36.1353 129.24H46.1753L41.1353 115.44L36.1353 129.24ZM69.7428 139.52C65.5028 139.52 61.9961 138.12 59.2228 135.32C56.4761 132.52 55.1028 129.08 55.1028 125C55.1028 120.92 56.4761 117.48 59.2228 114.68C61.9961 111.88 65.5028 110.48 69.7428 110.48C72.3028 110.48 74.6495 111.093 76.7828 112.32C78.9428 113.547 80.6228 115.2 81.8228 117.28L78.5828 119.16C77.7828 117.613 76.5828 116.387 74.9828 115.48C73.4095 114.547 71.6628 114.08 69.7428 114.08C66.5161 114.08 63.8761 115.12 61.8228 117.2C59.7961 119.28 58.7828 121.88 58.7828 125C58.7828 128.093 59.7961 130.68 61.8228 132.76C63.8761 134.84 66.5161 135.88 69.7428 135.88C71.6628 135.88 73.4095 135.427 74.9828 134.52C76.5828 133.587 77.7828 132.36 78.5828 130.84L81.8228 132.68C80.6495 134.76 78.9828 136.427 76.8228 137.68C74.6628 138.907 72.3028 139.52 69.7428 139.52ZM103.956 111H107.636V139H103.956V126.4H90.3559V139H86.6359V111H90.3559V122.88H103.956V111ZM131.628 111H135.348V139H132.348L117.948 118.08V139H114.228V111H117.228L131.628 131.88V111ZM141.938 111H145.658V139H141.938V111ZM172.624 139H168.064L155.984 125.56V139H152.264V111H155.984V123.64L167.664 111H172.224L159.864 124.6L172.624 139Z" fill="white"/>
<path d="M114.76 63.5C119.567 63.5 123.51 65.0167 126.59 68.05C129.67 71.0367 131.21 74.91 131.21 79.67C131.21 84.3833 129.67 88.2567 126.59 91.29C123.51 94.2767 119.567 95.77 114.76 95.77C109.953 95.77 106.01 94.2767 102.93 91.29C99.85 88.2567 98.31 84.3833 98.31 79.67C98.31 75.9833 99.3133 72.7167 101.32 69.87L117.77 46H121.97L109.44 64.27C111.213 63.7567 112.987 63.5 114.76 63.5ZM105.52 88.7C107.853 91.0333 110.933 92.2 114.76 92.2C118.587 92.2 121.667 91.0333 124 88.7C126.333 86.3667 127.5 83.3567 127.5 79.67C127.5 75.9367 126.333 72.9033 124 70.57C121.667 68.2367 118.587 67.07 114.76 67.07C110.933 67.07 107.853 68.2367 105.52 70.57C103.233 72.9033 102.09 75.9367 102.09 79.67C102.09 83.3567 103.233 86.3667 105.52 88.7ZM167.758 88.91C164.538 93.4833 160.034 95.77 154.248 95.77C148.461 95.77 143.958 93.4833 140.738 88.91C137.518 84.3367 135.908 78.2 135.908 70.5C135.908 62.8 137.518 56.6633 140.738 52.09C143.958 47.5167 148.461 45.23 154.248 45.23C160.034 45.23 164.538 47.5167 167.758 52.09C170.978 56.6633 172.588 62.8 172.588 70.5C172.588 78.2 170.978 84.3367 167.758 88.91ZM143.538 86.53C146.104 90.31 149.674 92.2 154.248 92.2C158.821 92.2 162.391 90.31 164.958 86.53C167.524 82.7033 168.808 77.36 168.808 70.5C168.808 63.64 167.524 58.32 164.958 54.54C162.391 50.7133 158.821 48.8 154.248 48.8C149.674 48.8 146.104 50.7133 143.538 54.54C140.971 58.32 139.688 63.64 139.688 70.5C139.688 77.36 140.971 82.7033 143.538 86.53Z" fill="white"/>
</svg>
