<svg width="110" height="88" viewBox="0 0 110 88" fill="none" xmlns="http://www.w3.org/2000/svg">
<path d="M53.5733 23.2993C55.5287 28.6547 54.5481 34.6522 50.9719 39.1097V53.2628C50.9719 53.8081 50.5299 54.25 49.9846 54.25H10.0151C9.46988 54.25 9.02785 53.8081 9.02785 53.2628V23.2994H1.73693H1.7368C1.42135 23.2993 1.12501 23.1484 0.939254 22.8934L0.939232 22.8934C0.61835 22.4528 0.71526 21.8353 1.15612 21.5143L1.15615 21.5143L29.4191 0.941037L29.4191 0.941014C29.7655 0.688982 30.2348 0.688982 30.5811 0.941013L30.5812 0.941037L37.2915 5.82564L39.8297 1.25775L39.83 1.25717C39.8392 1.2407 39.8483 1.22682 39.8547 1.21733C39.8594 1.21025 39.8616 1.20717 39.8632 1.20485C39.8647 1.20259 39.8658 1.20105 39.8683 1.19721L39.8687 1.19664L39.8691 1.19598L39.8693 1.19566L39.8694 1.1954C39.8706 1.19356 39.8734 1.18919 39.8769 1.18408C39.9479 1.0786 40.0389 0.987855 40.1445 0.917004C40.5956 0.614328 41.2068 0.734305 41.5097 1.18555C41.513 1.19046 41.5156 1.19459 41.5172 1.19706L41.5187 1.19954C41.5201 1.20161 41.5209 1.20281 41.5221 1.20446C41.5236 1.20671 41.5258 1.20979 41.5306 1.21702C41.537 1.2265 41.5464 1.24073 41.5558 1.25775L53.5733 23.2993ZM53.5733 23.2993H58.2628H58.2629C58.8082 23.2992 59.25 22.8571 59.25 22.312V22.3119C59.2498 21.9964 59.099 21.6999 58.8439 21.5143C58.8438 21.5142 58.8438 21.5142 58.8438 21.5142L48.7145 14.1409L41.5562 1.25848L53.5733 23.2993ZM52.4493 30.8881L52.4495 30.8868C52.8903 27.7982 52.3046 24.6503 50.7823 21.9268L50.782 21.9263L41.68 5.54608V18.1621L43.8596 15.983L43.862 15.9806C44.2453 15.6078 44.8558 15.6078 45.2391 15.9806C45.6299 16.3607 45.6385 16.9858 45.2582 17.3765L45.2558 17.379L41.68 20.9541V26.8127L46.4325 22.0612L46.4362 22.0575L46.4414 22.0522L46.4448 22.0488L46.4462 22.0474C46.835 21.665 47.4601 21.6704 47.8424 22.0589C48.2247 22.4473 48.2196 23.0718 47.8317 23.4542C47.8314 23.4545 47.8312 23.4547 47.8309 23.455L41.68 29.6048V35.7855L49.657 27.8101L49.6594 27.8077C50.0425 27.435 50.6531 27.4347 51.0364 27.8077L52.4493 30.8881ZM52.4493 30.8881C52.0823 33.5576 50.9645 36.0681 49.2259 38.127L49.2258 38.127M52.4493 30.8881L49.2258 38.127M49.2258 38.127L49.2231 38.1304M49.2258 38.127L49.2231 38.1304M49.2231 38.1304L49.223 38.1305M49.2231 38.1304L49.223 38.1305M49.223 38.1305L49.2218 38.132M49.223 38.1305L49.2218 38.132M49.2218 38.132C48.9563 38.4466 48.6768 38.7514 48.3831 39.0465C46.584 40.8471 44.2101 41.9543 41.68 42.1787V38.5777L51.0531 29.2061L51.0555 29.2036C51.4358 28.8129 51.4273 28.1879 51.0365 27.8078L49.2218 38.132ZM28.9365 30.8881L28.9363 30.8868C28.4956 27.7982 29.0815 24.6503 30.6038 21.9268L30.6041 21.9263L39.7057 5.54612V18.1621L37.526 15.9827L37.5236 15.9804C37.1328 15.6002 36.5078 15.6087 36.1276 15.9993L36.3067 16.1737L36.1276 15.9993C35.7545 16.3825 35.7545 16.993 36.1275 17.3763L36.1299 17.3787L39.7056 20.9539V26.8127L34.9495 22.0575C34.564 21.672 33.9389 21.6718 33.5532 22.0575C33.1677 22.4429 33.1675 23.068 33.5532 23.4535C33.5532 23.4535 33.5532 23.4536 33.5532 23.4536L39.7056 29.6048V35.7855L31.7288 27.8101L31.7288 27.8101L31.7263 27.8077C31.3356 27.4276 30.7107 27.4359 30.3303 27.8267C29.9573 28.2099 29.9573 28.8205 30.3303 29.2037L30.3303 29.2037L30.3327 29.2061L39.7057 38.5777V42.1787C37.2101 41.9573 34.8666 40.8771 33.0767 39.1197L33.0019 39.0453C30.7896 36.8449 29.3614 33.979 28.9365 30.8881ZM10.0151 21.3251H4.77051L29.9999 2.96027L36.3252 7.56451L28.8779 20.9674C25.3369 27.3399 26.4502 35.2872 31.6058 40.4419C33.7747 42.6134 36.6498 43.9316 39.7054 44.1606V52.2757H11.0024V22.3123C11.0024 21.7671 10.5604 21.3251 10.0151 21.3251ZM41.68 52.2757V44.1612C44.3773 43.9585 46.9383 42.9067 48.9973 41.1613V52.2757H41.68ZM55.2292 21.3248L52.6992 21.3251C52.6373 21.206 52.5737 21.0862 52.5071 20.967C52.5071 20.9669 52.5071 20.9669 52.507 20.9669L50.9929 18.2414L55.2292 21.3248Z" fill="#0E9C2D" stroke="#0E9C2D" stroke-width="0.5"/>
<path d="M10.048 62.8C12.5267 62.8 14.5807 63.684 16.21 65.452C17.8567 67.2027 18.68 69.352 18.68 71.9C18.68 74.448 17.8567 76.606 16.21 78.374C14.5807 80.1247 12.5267 81 10.048 81H2.95V62.8H10.048ZM10.048 78.712C11.9027 78.712 13.4193 78.062 14.598 76.762C15.7767 75.462 16.366 73.8413 16.366 71.9C16.366 69.9587 15.7767 68.338 14.598 67.038C13.4193 65.738 11.9027 65.088 10.048 65.088H5.368V78.712H10.048ZM32.418 81L30.936 76.918H22.746L21.264 81H18.69L25.476 62.8H28.206L34.992 81H32.418ZM23.578 74.656H30.104L26.828 65.686L23.578 74.656ZM44.5128 81.338C41.7568 81.338 39.4775 80.428 37.6748 78.608C35.8895 76.788 34.9968 74.552 34.9968 71.9C34.9968 69.248 35.8895 67.012 37.6748 65.192C39.4775 63.372 41.7568 62.462 44.5128 62.462C46.1768 62.462 47.7022 62.8607 49.0888 63.658C50.4928 64.4553 51.5848 65.53 52.3648 66.882L50.2588 68.104C49.7388 67.0987 48.9588 66.3013 47.9188 65.712C46.8962 65.1053 45.7608 64.802 44.5128 64.802C42.4155 64.802 40.6995 65.478 39.3648 66.83C38.0475 68.182 37.3888 69.872 37.3888 71.9C37.3888 73.9107 38.0475 75.592 39.3648 76.944C40.6995 78.296 42.4155 78.972 44.5128 78.972C45.7608 78.972 46.8962 78.6773 47.9188 78.088C48.9588 77.4813 49.7388 76.684 50.2588 75.696L52.3648 76.892C51.6022 78.244 50.5188 79.3273 49.1148 80.142C47.7108 80.9393 46.1768 81.338 44.5128 81.338ZM65.8414 62.8H68.2334V81H65.8414V72.81H57.0014V81H54.5834V62.8H57.0014V70.522H65.8414V62.8ZM82.9183 62.8H85.3363V81H83.3863L74.0263 67.402V81H71.6083V62.8H73.5583L82.9183 76.372V62.8ZM88.7094 62.8H91.1274V81H88.7094V62.8ZM107.746 81H104.782L96.9296 72.264V81H94.5116V62.8H96.9296V71.016L104.522 62.8H107.486L99.4516 71.64L107.746 81Z" fill="#0E9C2D"/>
<path d="M70.792 34.2C73.8133 34.2 76.292 35.1533 78.228 37.06C80.164 38.9373 81.132 41.372 81.132 44.364C81.132 47.3267 80.164 49.7613 78.228 51.668C76.292 53.5453 73.8133 54.484 70.792 54.484C67.7707 54.484 65.292 53.5453 63.356 51.668C61.42 49.7613 60.452 47.3267 60.452 44.364C60.452 42.0467 61.0827 39.9933 62.344 38.204L72.684 23.2H75.324L67.448 34.684C68.5627 34.3613 69.6773 34.2 70.792 34.2ZM64.984 50.04C66.4507 51.5067 68.3867 52.24 70.792 52.24C73.1973 52.24 75.1333 51.5067 76.6 50.04C78.0667 48.5733 78.8 46.6813 78.8 44.364C78.8 42.0173 78.0667 40.1107 76.6 38.644C75.1333 37.1773 73.1973 36.444 70.792 36.444C68.3867 36.444 66.4507 37.1773 64.984 38.644C63.5467 40.1107 62.828 42.0173 62.828 44.364C62.828 46.6813 63.5467 48.5733 64.984 50.04ZM104.105 50.172C102.081 53.0467 99.2501 54.484 95.6128 54.484C91.9755 54.484 89.1448 53.0467 87.1208 50.172C85.0968 47.2973 84.0848 43.44 84.0848 38.6C84.0848 33.76 85.0968 29.9027 87.1208 27.028C89.1448 24.1533 91.9755 22.716 95.6128 22.716C99.2501 22.716 102.081 24.1533 104.105 27.028C106.129 29.9027 107.141 33.76 107.141 38.6C107.141 43.44 106.129 47.2973 104.105 50.172ZM88.8808 48.676C90.4941 51.052 92.7381 52.24 95.6128 52.24C98.4875 52.24 100.731 51.052 102.345 48.676C103.958 46.2707 104.765 42.912 104.765 38.6C104.765 34.288 103.958 30.944 102.345 28.568C100.731 26.1627 98.4875 24.96 95.6128 24.96C92.7381 24.96 90.4941 26.1627 88.8808 28.568C87.2675 30.944 86.4608 34.288 86.4608 38.6C86.4608 42.912 87.2675 46.2707 88.8808 48.676Z" fill="#0E9C2D"/>
</svg>
