<svg width="22" height="16" viewBox="0 0 22 16" fill="none" xmlns="http://www.w3.org/2000/svg">
<path d="M14.2528 8.04078C14.2528 8.94708 13.8953 9.81627 13.2589 10.4571C12.6225 11.098 11.7593 11.458 10.8593 11.458C9.95932 11.458 9.09616 11.098 8.45976 10.4571C7.82335 9.81627 7.46582 8.94708 7.46582 8.04078C7.46582 7.13447 7.82335 6.26528 8.45976 5.62442C9.09616 4.98356 9.95932 4.62354 10.8593 4.62354C11.7593 4.62354 12.6225 4.98356 13.2589 5.62442C13.8953 6.26528 14.2528 7.13447 14.2528 8.04078Z" fill="#494949"/>
<path fill-rule="evenodd" clip-rule="evenodd" d="M0 8.04076C0 8.04076 4.07221 0.522827 10.8592 0.522827C17.6463 0.522827 21.7185 8.04076 21.7185 8.04076C21.7185 8.04076 17.6463 15.5587 10.8592 15.5587C4.07221 15.5587 0 8.04076 0 8.04076ZM10.8592 12.8249C12.1193 12.8249 13.3277 12.3209 14.2186 11.4237C15.1096 10.5265 15.6101 9.30959 15.6101 8.04076C15.6101 6.77192 15.1096 5.55506 14.2186 4.65786C13.3277 3.76066 12.1193 3.25662 10.8592 3.25662C9.59921 3.25662 8.3908 3.76066 7.49983 4.65786C6.60886 5.55506 6.10832 6.77192 6.10832 8.04076C6.10832 9.30959 6.60886 10.5265 7.49983 11.4237C8.3908 12.3209 9.59921 12.8249 10.8592 12.8249Z" fill="#494949"/>
</svg>
